<?xml version="1.0" standalone="no"?>
<svg xmlns="http://www.w3.org/2000/svg" viewBox="0 0 105.8 29" width="105.8" height="29"><path fill="#ffffff" fill-rule="nonzero" d="M0 5.83L0.02 0.26L16.61 0.26L16.63 5.83Q16.10 5.93 15.74 5.83L15.74 5.83L14.62 1.49L9.62 1.49L9.62 18.31L12.05 18.55Q12.14 18.91 12.05 19.44L12.05 19.44Q10.54 19.37 8.40 19.37L8.40 19.37Q6.74 19.37 4.73 19.42L4.73 19.42Q4.58 18.98 4.73 18.55L4.73 18.55L6.96 18.26Q7.06 17.35 7.06 15.46L7.06 15.46L7.06 1.49L2.02 1.49L0.89 5.83Q0.53 5.93 0 5.83L0 5.83ZM18.53 0.19L18.53 0.19Q19.51 0.19 21.66 0.10Q23.81 0 25.56 0L25.56 0Q29.21 0 30.77 1.45Q32.33 2.90 32.33 5.50L32.33 5.50Q32.33 7.06 31.25 8.30Q30.17 9.55 28.42 10.18L28.42 10.18Q29.45 11.93 30.35 13.46Q31.25 15.00 31.66 15.74Q32.06 16.49 32.40 17.08Q32.74 17.66 32.89 17.88Q33.05 18.10 33.19 18.24L33.19 18.24L34.92 18.48Q35.02 18.84 34.92 19.37L34.92 19.37L30.84 19.37L27.22 12.79Q26.50 11.42 25.85 10.68L25.85 10.68L25.51 10.68Q24.29 10.68 23.04 10.54L23.04 10.54L23.04 18.31L25.22 18.55Q25.32 18.91 25.22 19.44L25.22 19.44Q23.71 19.37 21.82 19.37L21.82 19.37Q20.40 19.37 18.38 19.42L18.38 19.42Q18.24 18.98 18.38 18.55L18.38 18.55L20.38 18.26Q20.47 17.35 20.47 15.46L20.47 15.46L20.47 1.32L18.53 1.08Q18.43 0.72 18.53 0.19ZM23.04 4.18L23.04 4.18L23.04 9.55Q23.78 9.65 25.20 9.65L25.20 9.65Q26.42 9.65 27.30 9.25Q28.18 8.86 28.61 8.20Q29.04 7.54 29.23 6.84Q29.42 6.14 29.42 5.38L29.42 5.38Q29.42 3.31 28.39 2.16Q27.36 1.01 24.96 1.01L24.96 1.01Q24.07 1.01 23.18 1.18L23.18 1.18Q23.04 2.54 23.04 4.18ZM40.32 4.18L40.32 4.18L40.32 18.31L42.26 18.55Q42.36 18.91 42.26 19.44L42.26 19.44Q40.75 19.37 38.98 19.37L38.98 19.37Q37.68 19.37 35.66 19.42L35.66 19.42Q35.52 18.98 35.66 18.55L35.66 18.55L37.66 18.26Q37.75 17.35 37.75 15.46L37.75 15.46L37.75 1.32L35.81 1.08Q35.71 0.72 35.81 0.19L35.81 0.19Q37.13 0.29 39.10 0.29L39.10 0.29Q40.85 0.29 42.41 0.22L42.41 0.22Q42.55 0.65 42.41 1.08L42.41 1.08L40.42 1.37Q40.32 2.28 40.32 4.18ZM44.78 0.19L44.78 0.19Q45.77 0.19 47.92 0.10Q50.06 0 51.82 0L51.82 0Q55.54 0 57.12 1.45Q58.70 2.90 58.70 5.50L58.70 5.50Q58.70 7.80 56.65 9.36Q54.60 10.92 51.77 10.92L51.77 10.92Q50.30 10.92 49.30 10.78L49.30 10.78L49.30 18.31L51.48 18.55Q51.58 18.91 51.48 19.44L51.48 19.44Q49.97 19.37 48.07 19.37L48.07 19.37Q46.66 19.37 44.64 19.42L44.64 19.42Q44.50 18.98 44.64 18.55L44.64 18.55L46.63 18.26Q46.73 17.35 46.73 15.46L46.73 15.46L46.73 1.32L44.78 1.08Q44.69 0.72 44.78 0.19ZM49.30 4.18L49.30 4.18L49.30 9.79Q50.04 9.89 51.46 9.89L51.46 9.89Q52.70 9.89 53.60 9.47Q54.50 9.05 54.96 8.34Q55.42 7.63 55.61 6.91Q55.80 6.19 55.80 5.38L55.80 5.38Q55.80 3.29 54.74 2.15Q53.69 1.01 51.22 1.01L51.22 1.01Q50.33 1.01 49.44 1.18L49.44 1.18Q49.30 2.54 49.30 4.18Z" transform="translate(0, 4.78)"></path><line x1="67.70400000000001" y1="2%" x2="67.70400000000001" y2="98%" stroke="#ffffff" stroke-linecap="round"></line><g fill="#bba364" color="#bba364" transform="translate(76.70400000000001 0) scale(0.29)"><svg width="100.0" height="100.0" x="0.0" y="0.0" viewBox="0 0 100 100"><g><g><g><g><path d="M49,20.1c-11.6,0-21.1,9.5-21.1,21.1c0,7,3.7,13.5,6.9,19.2c2.8,4.9,5.5,9.6,5.5,14.1v1.4c0,1,0.8,1.9,1.9,1.9h13.6      c1,0,1.9-0.8,1.9-1.9v-1.4c0-4.5,2.7-9.4,5.6-14.7c3.3-6,6.8-12.2,6.8-18.6C70.1,29.6,60.6,20.1,49,20.1z"></path></g></g></g></g><g><path d="M42.4,85c-1,0-1.8-0.7-2-1.7c-0.2-1.1,0.6-2.1,1.7-2.3l13.6-2c1.1-0.2,2.1,0.6,2.3,1.7c0.2,1.1-0.6,2.1-1.7,2.3l-13.6,2   C42.6,85,42.5,85,42.4,85z"></path></g><g><path d="M42.4,90c-1,0-1.8-0.7-2-1.7c-0.2-1.1,0.6-2.1,1.7-2.3l13.6-2c1.1-0.2,2.1,0.6,2.3,1.7c0.2,1.1-0.6,2.1-1.7,2.3l-13.6,2   C42.6,90,42.5,90,42.4,90z"></path></g><g><path d="M54,95h-9c-1.1,0-2-0.9-2-2s0.9-2,2-2h9c1.1,0,2,0.9,2,2S55.1,95,54,95z"></path></g><g><path d="M85,46h-5c-1.4,0-2.5-1.1-2.5-2.5S78.6,41,80,41h5c1.4,0,2.5,1.1,2.5,2.5S86.4,46,85,46z"></path></g><g><path d="M19,46h-5c-1.4,0-2.5-1.1-2.5-2.5S12.6,41,14,41h5c1.4,0,2.5,1.1,2.5,2.5S20.4,46,19,46z"></path></g><g><path d="M75.9,29.8c-0.9,0-1.7-0.4-2.2-1.3c-0.7-1.2-0.3-2.7,0.9-3.4l4.3-2.5c1.2-0.7,2.7-0.3,3.4,0.9c0.7,1.2,0.3,2.7-0.9,3.4   l-4.3,2.5C76.8,29.6,76.3,29.8,75.9,29.8z"></path></g><g><path d="M18.8,62.8c-0.9,0-1.7-0.4-2.2-1.3c-0.7-1.2-0.3-2.7,0.9-3.4l4.3-2.5c1.2-0.7,2.7-0.3,3.4,0.9c0.7,1.2,0.3,2.7-0.9,3.4   L20,62.4C19.6,62.6,19.2,62.8,18.8,62.8z"></path></g><g><path d="M64.7,18.6c-0.4,0-0.9-0.1-1.2-0.3c-1.2-0.7-1.6-2.2-0.9-3.4l2.5-4.3c0.7-1.2,2.2-1.6,3.4-0.9c1.2,0.7,1.6,2.2,0.9,3.4   l-2.5,4.3C66.5,18.1,65.6,18.6,64.7,18.6z"></path></g><g><path d="M48.5,14.5c-1.4,0-2.5-1.1-2.5-2.5V7c0-1.4,1.1-2.5,2.5-2.5S51,5.6,51,7v5C51,13.4,49.9,14.5,48.5,14.5z"></path></g><g><path d="M34.3,18.6c-0.9,0-1.7-0.4-2.2-1.3L29.6,13c-0.7-1.2-0.3-2.7,0.9-3.4c1.2-0.7,2.7-0.3,3.4,0.9l2.5,4.3   c0.7,1.2,0.3,2.7-0.9,3.4C35.1,18.5,34.7,18.6,34.3,18.6z"></path></g><g><path d="M23.1,29.8c-0.4,0-0.9-0.1-1.2-0.3l-4.3-2.5c-1.2-0.7-1.6-2.2-0.9-3.4c0.7-1.2,2.2-1.6,3.4-0.9l4.3,2.5   c1.2,0.7,1.6,2.2,0.9,3.4C24.8,29.3,23.9,29.8,23.1,29.8z"></path></g><g><path d="M80.2,62.8c-0.4,0-0.9-0.1-1.2-0.3l-4.3-2.5c-1.2-0.7-1.6-2.2-0.9-3.4c0.7-1.2,2.2-1.6,3.4-0.9l4.3,2.5   c1.2,0.7,1.6,2.2,0.9,3.4C81.9,62.3,81.1,62.8,80.2,62.8z"></path></g></svg></g></svg>